<svg xmlns="http://www.w3.org/2000/svg" viewBox="0 0 64 64"><g id="_05-pine_tree" data-name="05-pine tree"><path d="M32,42s.36,1.8,3.03,3.24l1.95,13.63a2.275,2.275,0,0,1,.02.26V61a2.006,2.006,0,0,1-2,2H29a2.006,2.006,0,0,1-2-2V59.13a2.275,2.275,0,0,1,.02-.26l1.95-13.63C31.64,43.8,32,42,32,42Z" style="fill:#a56645"/><path d="M35,15a37.839,37.839,0,0,0,1,8c0,2.84-1.83,6-4,6s-4-3.16-4-6a37.839,37.839,0,0,0,1-8c0,2.21,1.34,5,3,5S35,17.21,35,15Z" style="fill:#007145"/><path d="M34,9a35.36,35.36,0,0,0,1,6c0,2.21-1.34,5-3,5s-3-2.79-3-5a35.36,35.36,0,0,0,1-6V8.92c.61.05,1.28.08,2,.08s1.39-.03,2-.08Z" style="fill:#008f57"/><path d="M30,9a35.36,35.36,0,0,1-1,6c0,1.66-1.68,5-5,5a7.651,7.651,0,0,1-5-2c2.25,0,4.49-1.58,6.03-2.96A19.455,19.455,0,0,0,27,13a14.54,14.54,0,0,0,1.91-4.2c.34.05.71.09,1.09.12Z" style="fill:#009e60"/><path d="M37,13a19.455,19.455,0,0,0,1.97,2.04C40.51,16.42,42.75,18,45,18a7.651,7.651,0,0,1-5,2c-3.32,0-5-3.34-5-5a35.36,35.36,0,0,1-1-6V8.92c.38-.03.75-.07,1.09-.12A14.54,14.54,0,0,0,37,13Z" style="fill:#009e60"/><path d="M32,39v3s-.36,1.8-3.03,3.24C27.2,46.2,24.4,47,20,47a10.781,10.781,0,0,0,3.2-4.93,15.779,15.779,0,0,0,.8-5.01A9.124,9.124,0,0,0,27,31C27,34.47,29.32,39,32,39Z" style="fill:#004a2d"/><path d="M35.03,45.24C32.36,43.8,32,42,32,42V39c2.68,0,5-4.53,5-8a9.124,9.124,0,0,0,3,6.06,15.779,15.779,0,0,0,.8,5.01A10.781,10.781,0,0,0,44,47C39.6,47,36.8,46.2,35.03,45.24Z" style="fill:#004a2d"/><path d="M24,37.06a15.779,15.779,0,0,1-.8,5.01L23,42s-3,3-14,3c0,0,4.67-2.8,6.78-6.6A9.135,9.135,0,0,0,19,39,7.358,7.358,0,0,0,24,37.06Z" style="fill:#007145"/><path d="M48.22,38.4C50.33,42.2,55,45,55,45c-11,0-14-3-14-3l-.2.07a15.779,15.779,0,0,1-.8-5.01A7.358,7.358,0,0,0,45,39,9.135,9.135,0,0,0,48.22,38.4Z" style="fill:#007145"/><path d="M36,23a53.844,53.844,0,0,0,1,8c0,3.47-2.32,8-5,8s-5-4.53-5-8a53.844,53.844,0,0,0,1-8c0,2.84,1.83,6,4,6S36,25.84,36,23Z" style="fill:#007145"/><path d="M24,37.06A7.358,7.358,0,0,1,19,39a9.135,9.135,0,0,1-3.22-.6A12,12,0,0,1,11,35c6.46,0,10-6,10-6,4.34,0,7-3.87,7-6a53.844,53.844,0,0,1-1,8A9.124,9.124,0,0,1,24,37.06Z" style="fill:#007145"/><path d="M48.22,38.4A9.135,9.135,0,0,1,45,39a7.358,7.358,0,0,1-5-1.94A9.124,9.124,0,0,1,37,31a53.844,53.844,0,0,1-1-8c0,2.13,2.66,6,7,6,0,0,3.54,6,10,6A12,12,0,0,1,48.22,38.4Z" style="fill:#007145"/><path d="M29,15a37.839,37.839,0,0,1-1,8c0,2.13-2.66,6-7,6a7.684,7.684,0,0,1-6-3c5.23,0,9-6,9-6C27.32,20,29,16.66,29,15Z" style="fill:#009e60"/><path d="M49,26a7.684,7.684,0,0,1-6,3c-4.34,0-7-3.87-7-6a37.839,37.839,0,0,1-1-8c0,1.66,1.68,5,5,5C40,20,43.77,26,49,26Z" style="fill:#009e60"/><path d="M28.91,8.8A14.54,14.54,0,0,1,27,13a19.455,19.455,0,0,1-1.97,2.04L25,15c-4,0-5-3-5-3,3.28,0,5.89-2.7,6.73-3.66A15.219,15.219,0,0,0,28.91,8.8Z" style="fill:#007145"/><path d="M44,12s-1,3-5,3l-.03.04A19.455,19.455,0,0,1,37,13a14.54,14.54,0,0,1-1.91-4.2,15.219,15.219,0,0,0,2.18-.46C38.11,9.3,40.72,12,44,12Z" style="fill:#007145"/><path d="M32,1s3,6,8,6a6.771,6.771,0,0,1-2.73,1.34,15.219,15.219,0,0,1-2.18.46c-.34.05-.71.09-1.09.12-.61.05-1.28.08-2,.08s-1.39-.03-2-.08c-.38-.03-.75-.07-1.09-.12a15.219,15.219,0,0,1-2.18-.46A6.771,6.771,0,0,1,24,7C29,7,32,1,32,1Z" style="fill:#00c477"/><path d="M24,7a6.771,6.771,0,0,0,2.73,1.34,15.219,15.219,0,0,0,2.18.46c.126.018.27.029.4.044C30.791,6.422,32,1,32,1S29,7,24,7Z" style="fill:#00e088"/><path d="M37.27,8.34A6.771,6.771,0,0,0,40,7c-5,0-8-6-8-6a11.908,11.908,0,0,0,2.818,7.83c.088-.011.187-.018.272-.03A15.219,15.219,0,0,0,37.27,8.34Z" style="fill:#00e088"/><path d="M32,24a3,3,0,0,0,3-3V15c0,2.21-1.34,5-3,5s-3-2.79-3-5v6A3,3,0,0,0,32,24Z" style="fill:#004a2d"/><path d="M24,20a16.05,16.05,0,0,1-1.4,1.819,3.366,3.366,0,0,0,2.326.865,1,1,0,0,1,.9,1.542c-1.151,1.658-3.575,3.649-8.549,3.763A7.322,7.322,0,0,0,21,29c4.34,0,7-3.87,7-6a37.839,37.839,0,0,0,1-8C29,16.66,27.32,20,24,20Z" style="fill:#007145"/><path d="M39.006,24.226a1,1,0,0,1,.9-1.542,3.175,3.175,0,0,0,1.827-.5A16.941,16.941,0,0,1,40,20c-3.32,0-5-3.34-5-5a37.839,37.839,0,0,0,1,8c0,2.13,2.66,6,7,6a7.318,7.318,0,0,0,3.777-1.044C42.325,27.663,40.1,25.8,39.006,24.226Z" style="fill:#007145"/><path d="M32,32c2.209,0,4-1.343,4-3V23c0,2.84-1.83,6-4,6s-4-3.16-4-6v6C28,30.657,29.791,32,32,32Z" style="fill:#004a2d"/><path d="M21.832,28.95V29a3.9,3.9,0,0,0,3.094,1.684,1,1,0,0,1,.9,1.541c-1.186,1.708-3.713,3.775-9,3.775h-3a1.991,1.991,0,0,1-1.756-1.062A10.187,10.187,0,0,1,11,35a12,12,0,0,0,4.78,3.4A9.135,9.135,0,0,0,19,39a7.358,7.358,0,0,0,5-1.94A9.124,9.124,0,0,0,27,31a53.844,53.844,0,0,0,1-8C28,24.99,25.677,28.5,21.832,28.95Z" style="fill:#004a2d"/><path d="M52.731,34.985A1.992,1.992,0,0,1,51,36H48c-5.283,0-7.809-2.067-8.995-3.775a1,1,0,0,1,.9-1.541A3.9,3.9,0,0,0,43,29c-4.34,0-7-3.87-7-6a53.844,53.844,0,0,0,1,8,9.124,9.124,0,0,0,3,6.06A7.358,7.358,0,0,0,45,39a9.135,9.135,0,0,0,3.22-.6A12,12,0,0,0,53,35C52.908,35,52.822,34.987,52.731,34.985Z" style="fill:#004a2d"/><path d="M35.8,61a6,6,0,0,1-5.954-6.744l.794-6.355C32,46.973,32,46,32,46s.01,1.841,3.55,2.873l-.52-3.633C32.36,43.8,32,42,32,42s-.36,1.8-3.03,3.24l-.52,3.633-1.43,10a2.275,2.275,0,0,0-.02.26V61a2.006,2.006,0,0,0,2,2h6a2.006,2.006,0,0,0,2-2Z" style="fill:#5d241d"/></g></svg>